PathFileType	4	(X/Y/Z)	outputs\dynamic_markers.trc
DataRate	CameraRate	NumFrames	NumMarkers	Units	OrigDataRate	OrigDataStartFrame	OrigNumFrames
360.000000	360.000000	4	48	m	360.000000	250	669
Frame#	Time	C7			CLAV			LANK			LASI			LBAK			LBHD			LELB			LFHD			LFIN			LFRM			LHEE			LIC			LKNE			LMANK			LMELB			LMKNE			LPSI			LSHO			LTHI			LTIB			LTOE			LUPA			LWRA			LWRB			RANK			RASI			RBAK			RBHD			RELB			RFHD			RFIN			RFRM			RHEE			RIC			RKNE			RMANK			RMELB			RMKNE			RPSI			RSHO			RTHI			RTIB			RTOE			RUPA			RWRA			RWRB			STRN			T10			
		X1	Y1	Z1	X2	Y2	Z2	X3	Y3	Z3	X4	Y4	Z4	X5	Y5	Z5	X6	Y6	Z6	X7	Y7	Z7	X8	Y8	Z8	X9	Y9	Z9	X10	Y10	Z10	X11	Y11	Z11	X12	Y12	Z12	X13	Y13	Z13	X14	Y14	Z14	X15	Y15	Z15	X16	Y16	Z16	X17	Y17	Z17	X18	Y18	Z18	X19	Y19	Z19	X20	Y20	Z20	X21	Y21	Z21	X22	Y22	Z22	X23	Y23	Z23	X24	Y24	Z24	X25	Y25	Z25	X26	Y26	Z26	X27	Y27	Z27	X28	Y28	Z28	X29	Y29	Z29	X30	Y30	Z30	X31	Y31	Z31	X32	Y32	Z32	X33	Y33	Z33	X34	Y34	Z34	X35	Y35	Z35	X36	Y36	Z36	X37	Y37	Z37	X38	Y38	Z38	X39	Y39	Z39	X40	Y40	Z40	X41	Y41	Z41	X42	Y42	Z42	X43	Y43	Z43	X44	Y44	Z44	X45	Y45	Z45	X46	Y46	Z46	X47	Y47	Z47	X48	Y48	Z48	

251	0.6944444444444444	0.0431460440158844	1.613621950149536	0.6236950159072876	0.05026473850011826	1.510455131530762	0.4880045652389526	-0.02205798774957657	0.05829267576336861	0.5490649938583374	0.006452225614339113	1.1032634973526	0.5947739481925964	-0.01722375303506851	1.444279670715332	0.7305297255516052	-0.0344010666012764	1.765872836112976	0.4815331101417542	-0.2218381464481354	1.273538947105408	0.3830459117889404	0.08163350820541382	1.791345000267029	0.4176632761955261	-0.004439497832208872	1.468307018280029	0.2462869584560394	-0.1477847546339035	1.359742999076843	0.3131922483444214	0.02991284802556038	0.06387826055288315	0.6278905272483826	-0.00264347530901432	1.122420072555542	0.6834751963615417	-0.04041966795921326	0.5666176080703735	0.4801844358444214	0.09200513362884521	0.07859645783901215	0.5525443553924561	-0.1445403844118118	1.22251033782959	0.4285013675689697	0.06920942664146423	0.5471130609512329	0.4314832985401154	0.1649957746267319	1.091363906860352	0.7320241928100586	-0.1353453695774078	1.579358100891113	0.5545278787612915	-0.03419571742415428	0.7279608845710754	0.5648980140686035	-0.05853120610117912	0.4359797239303589	0.4990246891975403	0.04526842385530472	0.08802516758441925	0.3671613931655884	-0.1987597942352295	1.423713684082031	0.471401572227478	-0.02174410410225391	1.410403251647949	0.2874690890312195	-0.0675697922706604	1.38737154006958	0.2210861444473267	0.1492061465978622	0.8395690321922302	-0.0194136667996645	0.252703458070755	1.175464153289795	0.513791561126709	0.1939300447702408	1.456750392913818	0.7043030261993408	0.03661049157381058	1.749191880226135	0.6189026832580566	0.4308548271656036	1.285822987556458	0.4550552666187286	0.1642816215753555	1.785223126411438	0.55217045545578	0.220100075006485	1.449665307998657	0.2136493027210236	0.3319454491138458	1.351569771766663	0.343804270029068	0.124084547162056	0.8142864108085632	0.07591730356216431	0.3239583075046539	1.209167718887329	0.5922948718070984	0.105912908911705	1.261498808860779	0.1674888432025909	0.0395568422973156	0.8109692335128784	0.004761336836963892	0.3698519468307495	1.225425720214844	0.4845568239688873	-0.01411636639386415	1.229806661605835	0.2279432117938995	0.2493879497051239	1.111925840377808	0.7038694620132446	0.2282851487398148	1.590400576591492	0.524116575717926	0.2579968571662903	1.206914305686951	0.3517456948757172	0.1298099309206009	1.139376163482666	0.083263099193573	0.04158339649438858	0.871931254863739	-0.1749549210071564	0.3525070548057556	1.432616710662842	0.473730742931366	0.2148692607879639	1.385531663894653	0.3225480914115906	0.2450021803379059	1.328177928924561	0.2617527544498444	0.0582231730222702	1.323791980743408	0.479069709777832	0.1128283068537712	1.380488395690918	0.7386581301689148	
252	0.6972222222222223	0.04365895316004753	1.613017916679382	0.623410165309906	0.05060427263379097	1.509750843048096	0.4876185059547424	-0.02205566689372063	0.05823629349470139	0.5491586327552795	0.007508466020226479	1.102981328964233	0.5947532653808594	-0.01600386574864388	1.443619728088379	0.7304043769836426	-0.03418045863509178	1.765132427215576	0.4811093807220459	-0.2213464081287384	1.273405909538269	0.3822246789932251	0.08176974952220917	1.790679693222046	0.4171744585037231	-0.004585907328873873	1.468958020210266	0.2454995959997177	-0.1475706100463867	1.35992419719696	0.3125982880592346	0.0299056600779295	0.06377080827951431	0.627974808216095	-0.0007243338623084128	1.121804118156433	0.6834352016448975	-0.03981254249811172	0.5666024684906006	0.4802544414997101	0.09191735088825226	0.07857806980609894	0.5526049733161926	-0.1438299715518951	1.222402095794678	0.4271104633808136	0.06974398344755173	0.5469626784324646	0.4311316013336182	0.1670880168676376	1.090816140174866	0.731265664100647	-0.1347620040178299	1.578472852706909	0.5546804666519165	-0.03305461257696152	0.7280572056770325	0.5649763941764832	-0.05810451880097389	0.436057448387146	0.4991087317466736	0.04484172537922859	0.08843895792961121	0.367319256067276	-0.1982053816318512	1.423151016235352	0.4711848795413971	-0.02245903015136719	1.41111433506012	0.2867590188980103	-0.06774416565895081	1.388229131698608	0.2202746719121933	0.14787457883358	0.8449090123176575	-0.01892114244401455	0.2540391683578491	1.176079750061035	0.5136533379554749	0.1952584385871887	1.456520795822144	0.7034745216369629	0.03687983378767967	1.748548626899719	0.6185479164123535	0.4310954213142395	1.286042928695679	0.4519213438034058	0.1645157933235168	1.784595251083374	0.551608145236969	0.2197059541940689	1.450707912445068	0.212354838848114	0.3318040072917938	1.352169752120972	0.3414921462535858	0.1229040771722794	0.8189916610717773	0.07642456889152527	0.3254220485687256	1.209222793579102	0.5913626551628113	0.105878122150898	1.265630841255188	0.1697687357664108	0.0383492186665535	0.8160300254821777	0.005491368938237429	0.3705092072486877	1.225554466247559	0.4820404350757599	-0.01347419712692499	1.233980536460876	0.2308366000652313	0.2513488531112671	1.111641049385071	0.7030823826789856	0.2286471128463745	1.59002685546875	0.5231522917747498	0.2589201033115387	1.208948135375977	0.3524879217147827	0.1291254311800003	1.144121885299683	0.08491890132427216	0.03945391625165939	0.8776693344116211	-0.1739237010478973	0.3527262806892395	1.432598352432251	0.4717572331428528	0.2150219678878784	1.385611414909363	0.3204737603664398	0.2446567118167877	1.328953862190247	0.2598006725311279	0.05869406089186668	1.323239684104919	0.4787528216838837	0.1142561957240105	1.380188941955566	0.7383502721786499	
253	0.7000000000000001	0.04428680241107941	1.612311959266663	0.62295001745224	0.0509646050632	1.509114146232605	0.4872117638587952	-0.02204288728535175	0.05818513035774231	0.549232542514801	0.009564260020852089	1.102320671081543	0.5946199893951416	-0.01492605451494455	1.442934036254883	0.7302786111831665	-0.03396949917078018	1.764390826225281	0.4807133376598358	-0.2209641188383102	1.273253560066223	0.3813542723655701	0.08193055540323257	1.789913654327393	0.4167084693908691	-0.004503462463617325	1.469613552093506	0.2446435242891312	-0.1473712176084518	1.360244274139404	0.3117859363555908	0.0299355573952198	0.0636676624417305	0.6280507445335388	0.001140628708526492	1.121193647384644	0.6835595965385437	-0.03914035111665726	0.5665836930274963	0.4803037643432617	0.09185609221458435	0.07858099788427353	0.5526863932609558	-0.1432954072952271	1.221837759017944	0.4256478548049927	0.07009940594434738	0.5467914938926697	0.4306375682353973	0.1691616326570511	1.090431809425354	0.7307391762733459	-0.1341330111026764	1.577571868896484	0.5548723936080933	-0.03129605948925018	0.7280176877975464	0.5650536417961121	-0.0575849860906601	0.4361187815666199	0.4991870820522308	0.04445722326636314	0.08883208781480789	0.3674690723419189	-0.1976791471242905	1.422574400901794	0.4709175229072571	-0.02277312241494656	1.411761045455933	0.285893589258194	-0.06833437830209732	1.38909387588501	0.2193863838911057	0.146440252661705	0.849751353263855	-0.01837479136884212	0.255226731300354	1.175912022590637	0.5128499865531921	0.1964304447174072	1.456289768218994	0.7027456760406494	0.03728367015719414	1.747893929481506	0.6180014610290527	0.4313571155071259	1.286251664161682	0.4489775896072388	0.1648038178682327	1.783946394920349	0.5509544610977173	0.2191957980394363	1.4516761302948	0.2108050584793091	0.3317103981971741	1.352744460105896	0.3392792940139771	0.1217736452817917	0.8236417174339294	0.07718179374933243	0.3267892003059387	1.209286570549011	0.5903347134590149	0.1058470830321312	1.269872784614563	0.1720147579908371	0.03721840307116508	0.8210317492485046	0.006408181972801685	0.3711196184158325	1.225532531738281	0.4791775047779083	-0.01289453916251659	1.237855315208435	0.233576163649559	0.2531646490097046	1.111214995384216	0.7018916010856628	0.2289846539497375	1.589659333229065	0.5222168564796448	0.2598226368427277	1.210878729820251	0.3531534969806671	0.1285540014505386	1.148743867874146	0.08659341186285019	0.03742906451225281	0.8833557367324829	-0.1727890372276306	0.3531727492809296	1.432533383369446	0.4699240922927856	0.2152180969715118	1.385563135147095	0.3183343410491943	0.2442826479673386	1.329747200012207	0.2577505111694336	0.05926122516393661	1.322752594947815	0.4785508811473846	0.1156588718295097	1.379831790924072	0.7379106879234314	
254	0.7027777777777778	0.04473725706338882	1.61184823513031	0.6226426959037781	0.05120643600821495	1.508630871772766	0.4869756698608398	-0.022012023255229	0.05816005915403366	0.549293577671051	0.01066482253372669	1.102076768875122	0.5946249961853027	-0.01412662677466869	1.442479610443115	0.7302200794219971	-0.03383103758096695	1.7638920545578	0.4804697036743164	-0.220618948340416	1.273137331008911	0.3807323575019836	0.08204681426286697	1.789450883865356	0.4163638949394226	-0.004420788958668709	1.47003972530365	0.2440775036811829	-0.1473087221384048	1.360462188720703	0.3112656772136688	0.02995311096310616	0.06359135359525681	0.6281065940856934	0.0024752386379987	1.120777368545532	0.6834732294082642	-0.03855976462364197	0.5665737390518188	0.4803183674812317	0.09181493520736694	0.07857804745435715	0.5527230501174927	-0.1428463608026505	1.221538782119751	0.4246634840965271	0.07043731957674026	0.5466645956039429	0.4304340481758118	0.1705890297889709	1.090098857879639	0.7303051948547363	-0.1338011026382446	1.57701301574707	0.555006742477417	-0.03029089421033859	0.7280436158180237	0.5649996995925903	-0.05721167474985123	0.4361817836761475	0.4992058277130127	0.04422569274902344	0.08906976878643036	0.3675849437713623	-0.1973397135734558	1.42221987247467	0.4707193374633789	-0.02274501696228981	1.41208815574646	0.2852588295936584	-0.06854822486639023	1.389660954475403	0.2187056988477707	0.1455643326044083	0.8528838157653809	-0.01780316606163979	0.2560093998908997	1.175756454467773	0.5122828483581543	0.1971462815999985	1.456076502799988	0.7022192478179932	0.03751550987362862	1.747446894645691	0.617669939994812	0.4317226111888885	1.286404609680176	0.4469602704048157	0.1649719178676605	1.783509016036987	0.5505046844482422	0.2187791615724564	1.452274918556213	0.209791973233223	0.331664115190506	1.353139162063599	0.3378553092479706	0.1211523562669754	0.826615571975708	0.07762369513511658	0.3275910317897797	1.209328293800354	0.5898979306221008	0.1059360653162003	1.272613048553467	0.1737081408500671	0.0363592728972435	0.8242943286895752	0.0071757473051548	0.3714970052242279	1.225371837615967	0.4771892130374908	-0.01277490891516209	1.240391135215759	0.2354506850242615	0.2544489204883575	1.111005663871765	0.7014028429985046	0.2291277050971985	1.589462637901306	0.5216390490531921	0.2604418396949768	1.212192058563232	0.3536321222782135	0.1280969530344009	1.1517573595047	0.08768089860677719	0.03607288748025894	0.8870344161987305	-0.1718933284282684	0.3533105254173279	1.432544469833374	0.4687298834323883	0.2153791934251785	1.385441303253174	0.3168625831604004	0.2438730597496033	1.330400228500366	0.2565033435821533	0.05977924540638924	1.322313904762268	0.4783543944358826	0.1167219504714012	1.379596471786499	0.7376149892807007	
